# xmcd CD database file generated by OrangeCD 5.2
#
# Track frame offsets:
#	150
#	12097
#	24315
#	62721
#	71975
#	76957
#	95744
#	105512
#	116766
#	122510
#	167660
#	184207
#	202357
#	214507
#	229374
#	233586
#	274236
#	286624
#	296088
#
# Disc length: 4146 seconds
#
# Revision: 0
# Processed by: cddbd v1.5.1PL0 Copyright (c) Steve Scherf et al.
# Submitted via: OrangeCD 5.2
#
DISCID=16103013
DTITLE=Johnny Cash - The ABC Show Series Volume 4
DYEAR=2000
DGENRE=Country
TTITLE0=Opening/Ring Of Fire
TTITLE1=Johnny Cash and Merle Haggard - T For Texas/The Women Make A Fool Out Of 
TTITLE1=Me
TTITLE2=Ride This Train: Lumberjack/The Timber Man/That's Paul
TTITLE3=I Love You Because
TTITLE4=Johnny Cash and Tommy Cash - Do What You Do Well
TTITLE5=What Is Truth
TTITLE6=Opening/Guess Thing Happen That Way
TTITLE7=Johnny Cash and Jackie De Shannon - One More Night
TTITLE8=Johnny Cash and Waylon Jennings - The Singing Star's Queen
TTITLE9=Ride This Train: Land Of Israel/He Turned The Water Into Wine/God Is No
TTITLE9=t Dead
TTITLE10=Johnny Cash and Michael Parks - Oklahoma Hills
TTITLE11=Love's Been Good To Me
TTITLE12=I Was Seeing Nellie Home
TTITLE13=Old Doc Brown
TTITLE14=Johnny Cash and Shel Silverstein - A Boy Named Sue
TTITLE15=Ride This Train: Carter Family Medley
TTITLE16=The Long Black Veil
TTITLE17=Johnny Cash and The Statler Brothers - Billy Christian
TTITLE18=How Great Thou Art
EXTD=
EXTT0=
EXTT1=
EXTT2=
EXTT3=
EXTT4=
EXTT5=
EXTT6=
EXTT7=
EXTT8=
EXTT9=
EXTT10=
EXTT11=
EXTT12=
EXTT13=
EXTT14=
EXTT15=
EXTT16=
EXTT17=
EXTT18=
PLAYORDER=
